<svg fill="none" height="37" viewBox="0 0 140 37" width="140" xmlns="http://www.w3.org/2000/svg"><g clip-rule="evenodd" fill="#ec111a" fill-rule="evenodd"><path d="m60.8022 29.3215c-3.0085 0-5.4567-2.4295-5.4567-5.4172 0-2.9872 2.4482-5.4171 5.4567-5.4171 3.0086 0 5.4557 2.4299 5.4557 5.4171 0 2.9877-2.4471 5.4172-5.4557 5.4172m0-17.7046c-6.8237 0-12.376 5.512-12.376 12.2874 0 6.7759 5.5523 12.2885 12.376 12.2885 6.8238 0 12.375-5.5126 12.375-12.2885 0-6.7754-5.5512-12.2874-12.375-12.2874"/><path d="m88.9435 12.2015h-3.378v-7.25314h-7.3981v7.25314h-3.3779v6.6482h3.3779v16.7589h7.3981v-16.7589h3.378z"/><path d="m92.3365 35.6084h7.3966v-23.4071h-7.3966z"/><path d="m96.5057.856628c-2.2716 0-4.1207 1.836002-4.1207 4.091522 0 2.25588 1.8491 4.09188 4.1207 4.09188 2.2727 0 4.1213-1.836 4.1213-4.09188 0-2.25552-1.8486-4.091522-4.1213-4.091522"/><path d="m115.707 29.4329c-3.07 0-5.568-2.4797-5.568-5.5283 0-3.049 2.498-5.5294 5.568-5.5294 3.071 0 5.569 2.4804 5.569 5.5294 0 3.0486-2.498 5.5283-5.569 5.5283zm12.941 6.1756v-23.4082h-7.211v2.4615l-.668-.5931c-1.808-1.6047-3.83-2.4526-6.211-2.4526-6.364 0-11.74 5.6267-11.74 12.2885 0 6.6614 5.376 12.2884 11.74 12.2884 2.381 0 4.403-.8479 6.211-2.453l.668-.5927v2.4612z"/><path d="m22.9592 29.3088c.5316-1.2739.7592-2.5642.7592-4.3129 0-2.3621-.7456-4.4736-2.1007-5.9457-1.5795-1.7176-4.2786-3.1437-8.0238-4.2401-.821-.2399-1.5084-.4958-2.1029-.7842-.6612-.3194-1.148-.7079-1.56692-1.1581-.47959-.5146-.67379-1.1252-.67379-1.8969 0-1.08713.58656-1.82388 1.53961-2.41949 1.1961-.7478 3.4964-.82194 5.8481.04384.8184.30119 1.5511.63446 2.3861 1.12099l3.1442-6.2116c-1.1681-.69291-2.8298-1.59541-4.5087-2.01849-1.7015-.42951-3.2979-.629827-5.0235-.629827-1.7299 0-3.30971.259487-4.69463.770617-1.23164.45231-2.50708 1.27818-3.59262 2.32253-.98395.94812-1.87636 2.29901-2.38933 3.55188-.52518 1.28103-.79154 2.73635-.79154 4.32745 0 1.6607.79154 4.3478 2.78672 6.2045 2.1542 2.006 4.59738 2.7175 5.58097 3.0949.97353.3736 2.06443.6947 2.75623.9685.7301.2905 1.554.6733 2.025 1.024.5068.3764.8489.7175 1.079 1.1912.2233.4659.2807.8868.2301 1.4924-.0642.7717-.4185 1.4268-1.0525 2.0189-.6339.592-1.778.9313-3.4005.9313-1.36128 0-2.74476-.3792-4.12502-.9859-1.21477-.5332-2.05405-1.0033-3.35103-1.764l-3.69707207 6.3963c2.58031207 2.2747 6.76307207 3.7921 10.48812207 3.7921 1.9037 0 3.882-.3144 5.5735-.884 1.5953-.5371 3.1744-1.4136 4.2233-2.3439 1.125-.9987 2.1499-2.4002 2.6744-3.6563"/><path d="m43.2163 27.2983c-1.0008 1.2326-2.5329 2.0232-4.2481 2.0232-3.0085 0-5.4567-2.4295-5.4567-5.4168 0-2.9876 2.4482-5.4171 5.4567-5.4171 1.7152 0 3.2473.7906 4.2481 2.0231l4.9029-4.8696c-2.2651-2.4708-5.5285-4.0242-9.151-4.0242-6.8237 0-12.7654 4.8219-12.7654 12.2878 0 7.4656 5.9417 12.2885 12.7654 12.2885 3.6225 0 6.8863-1.5537 9.1514-4.0252z"/></g></svg>